<?xml version="1.0" encoding="UTF-8"?>
<svg xmlns="http://www.w3.org/2000/svg" xmlns:xlink="http://www.w3.org/1999/xlink" width="32px" height="32px" viewBox="0 0 32 32" version="1.1">
<g id="surface1">
<path style=" stroke:none;fill-rule:nonzero;fill:rgb(99.607843%,99.607843%,99.607843%);fill-opacity:1;" d="M 16.015625 12.730469 C 16.0625 12.726562 16.109375 12.726562 16.15625 12.722656 C 16.507812 12.785156 16.757812 13.058594 16.992188 13.308594 C 17.050781 13.367188 17.105469 13.425781 17.164062 13.484375 C 17.195312 13.515625 17.222656 13.546875 17.253906 13.578125 C 18.136719 14.496094 19.042969 15.117188 20.367188 15.1875 C 22.03125 15.171875 23.085938 14.296875 24.195312 13.179688 C 24.246094 13.125 24.246094 13.125 24.300781 13.070312 C 24.523438 12.84375 24.636719 12.742188 24.953125 12.730469 C 25.246094 12.734375 25.40625 12.796875 25.625 13 C 25.828125 13.332031 25.960938 13.703125 26.097656 14.066406 C 26.128906 14.148438 26.128906 14.148438 26.160156 14.230469 C 26.207031 14.351562 26.25 14.46875 26.296875 14.589844 C 26.421875 14.917969 26.546875 15.25 26.671875 15.578125 C 26.699219 15.648438 26.726562 15.71875 26.753906 15.789062 C 27.058594 16.585938 27.363281 17.382812 27.671875 18.179688 C 27.730469 18.328125 27.789062 18.480469 27.847656 18.628906 C 27.964844 18.933594 28.082031 19.238281 28.199219 19.542969 C 28.375 20 28.554688 20.460938 28.730469 20.921875 C 28.773438 21.035156 28.773438 21.035156 28.820312 21.152344 C 28.964844 21.527344 29.109375 21.902344 29.253906 22.277344 C 29.5 22.910156 29.742188 23.546875 29.992188 24.179688 C 30.089844 24.433594 30.191406 24.691406 30.289062 24.945312 C 30.335938 25.0625 30.382812 25.179688 30.429688 25.300781 C 30.492188 25.460938 30.554688 25.621094 30.617188 25.78125 C 30.632812 25.828125 30.652344 25.875 30.671875 25.921875 C 31.078125 26.972656 31.089844 28.199219 30.648438 29.242188 C 30.1875 30.277344 29.421875 31.027344 28.382812 31.492188 C 27.800781 31.699219 27.28125 31.777344 26.667969 31.777344 C 26.589844 31.78125 26.511719 31.78125 26.433594 31.78125 C 26.269531 31.78125 26.109375 31.78125 25.945312 31.78125 C 25.699219 31.78125 25.449219 31.785156 25.203125 31.785156 C 25.046875 31.785156 24.886719 31.789062 24.730469 31.785156 C 24.617188 31.789062 24.617188 31.789062 24.503906 31.789062 C 23.933594 31.785156 23.933594 31.785156 23.703125 31.617188 C 23.5625 31.4375 23.5625 31.4375 23.5 31 C 22.757812 31 22.015625 31 21.25 31 C 21.230469 31.144531 21.207031 31.289062 21.1875 31.4375 C 21.019531 31.640625 20.921875 31.726562 20.660156 31.78125 C 20.394531 31.792969 20.183594 31.78125 19.964844 31.621094 C 19.8125 31.4375 19.8125 31.4375 19.75 31 C 19.007812 31 18.265625 31 17.5 31 C 17.480469 31.144531 17.457031 31.289062 17.4375 31.4375 C 17.269531 31.640625 17.171875 31.726562 16.910156 31.78125 C 16.644531 31.792969 16.433594 31.78125 16.214844 31.621094 C 16.0625 31.4375 16.0625 31.4375 16 31 C 15.671875 31 15.339844 31 15 31 C 15 31.125 15 31.246094 15 31.375 C 14.847656 31.625 14.714844 31.726562 14.4375 31.8125 C 14.226562 31.828125 14.226562 31.828125 13.984375 31.828125 C 13.9375 31.828125 13.894531 31.828125 13.847656 31.828125 C 13.695312 31.832031 13.542969 31.832031 13.394531 31.832031 C 13.285156 31.832031 13.175781 31.832031 13.070312 31.832031 C 12.773438 31.832031 12.480469 31.832031 12.1875 31.832031 C 12.003906 31.832031 11.816406 31.832031 11.632812 31.835938 C 10.992188 31.835938 10.347656 31.835938 9.707031 31.835938 C 9.109375 31.835938 8.507812 31.835938 7.910156 31.839844 C 7.398438 31.839844 6.882812 31.839844 6.371094 31.839844 C 6.0625 31.839844 5.753906 31.839844 5.449219 31.84375 C 5.160156 31.84375 4.871094 31.84375 4.582031 31.84375 C 4.476562 31.84375 4.371094 31.84375 4.265625 31.84375 C 3.269531 31.851562 2.460938 31.675781 1.707031 30.988281 C 1.125 30.375 0.972656 29.671875 0.984375 28.855469 C 1.035156 28.117188 1.371094 27.511719 1.90625 27.003906 C 2.550781 26.472656 3.238281 26.3125 4.0625 26.375 C 4.492188 26.441406 4.914062 26.542969 5.339844 26.636719 C 5.457031 26.664062 5.574219 26.6875 5.695312 26.714844 C 5.976562 26.777344 6.257812 26.839844 6.539062 26.90625 C 6.738281 26.949219 6.9375 26.992188 7.136719 27.035156 C 7.253906 27.0625 7.367188 27.085938 7.484375 27.113281 C 7.535156 27.125 7.582031 27.132812 7.632812 27.144531 C 8.007812 27.234375 8.285156 27.363281 8.5 27.6875 C 8.503906 27.832031 8.503906 27.980469 8.5 28.125 C 8.605469 28.136719 8.605469 28.136719 8.710938 28.148438 C 9.011719 28.183594 9.300781 28.25 9.59375 28.316406 C 9.644531 28.328125 9.695312 28.339844 9.75 28.351562 C 9.875 28.378906 10 28.410156 10.125 28.4375 C 10.113281 28.394531 10.105469 28.355469 10.09375 28.3125 C 10.054688 28.085938 10.046875 27.863281 10.042969 27.636719 C 10.042969 27.597656 10.039062 27.554688 10.039062 27.511719 C 10.023438 26.507812 10.507812 25.515625 10.867188 24.597656 C 10.921875 24.453125 10.976562 24.3125 11.035156 24.167969 C 11.152344 23.867188 11.269531 23.570312 11.382812 23.269531 C 11.644531 22.605469 11.898438 21.9375 12.15625 21.273438 C 12.300781 20.898438 12.445312 20.527344 12.585938 20.15625 C 12.851562 19.46875 13.117188 18.78125 13.382812 18.09375 C 13.53125 17.714844 13.675781 17.335938 13.820312 16.960938 C 13.878906 16.816406 13.933594 16.667969 13.988281 16.523438 C 14.015625 16.453125 14.042969 16.382812 14.070312 16.3125 C 14.230469 15.90625 14.382812 15.5 14.539062 15.09375 C 14.628906 14.851562 14.722656 14.613281 14.816406 14.371094 C 14.855469 14.261719 14.898438 14.148438 14.941406 14.039062 C 14.996094 13.890625 15.054688 13.742188 15.113281 13.589844 C 15.128906 13.546875 15.144531 13.503906 15.160156 13.460938 C 15.320312 13.042969 15.554688 12.746094 16.015625 12.730469 Z M 16.015625 12.730469 "/>
<path style=" stroke:none;fill-rule:nonzero;fill:rgb(26.666668%,29.411766%,32.941177%);fill-opacity:1;" d="M 16.015625 12.730469 C 16.0625 12.726562 16.109375 12.726562 16.15625 12.722656 C 16.507812 12.785156 16.757812 13.058594 16.992188 13.308594 C 17.050781 13.367188 17.105469 13.425781 17.164062 13.484375 C 17.195312 13.515625 17.222656 13.546875 17.253906 13.578125 C 18.136719 14.496094 19.042969 15.117188 20.367188 15.1875 C 22.03125 15.171875 23.085938 14.296875 24.195312 13.179688 C 24.246094 13.125 24.246094 13.125 24.300781 13.070312 C 24.523438 12.84375 24.636719 12.742188 24.953125 12.730469 C 25.246094 12.734375 25.40625 12.796875 25.625 13 C 25.828125 13.332031 25.960938 13.703125 26.097656 14.066406 C 26.128906 14.148438 26.128906 14.148438 26.160156 14.230469 C 26.207031 14.351562 26.25 14.46875 26.296875 14.589844 C 26.421875 14.917969 26.546875 15.25 26.671875 15.578125 C 26.699219 15.648438 26.726562 15.71875 26.753906 15.789062 C 27.058594 16.585938 27.363281 17.382812 27.671875 18.179688 C 27.730469 18.328125 27.789062 18.480469 27.847656 18.628906 C 27.964844 18.933594 28.082031 19.238281 28.199219 19.542969 C 28.375 20 28.554688 20.460938 28.730469 20.921875 C 28.773438 21.035156 28.773438 21.035156 28.820312 21.152344 C 28.964844 21.527344 29.109375 21.902344 29.253906 22.277344 C 29.5 22.910156 29.742188 23.546875 29.992188 24.179688 C 30.089844 24.433594 30.191406 24.691406 30.289062 24.945312 C 30.335938 25.0625 30.382812 25.179688 30.429688 25.300781 C 30.492188 25.460938 30.554688 25.621094 30.617188 25.78125 C 30.632812 25.828125 30.652344 25.875 30.671875 25.921875 C 31.078125 26.972656 31.089844 28.199219 30.648438 29.242188 C 30.1875 30.277344 29.421875 31.027344 28.382812 31.492188 C 27.800781 31.699219 27.28125 31.777344 26.667969 31.777344 C 26.589844 31.78125 26.511719 31.78125 26.433594 31.78125 C 26.269531 31.78125 26.109375 31.78125 25.945312 31.78125 C 25.699219 31.78125 25.449219 31.785156 25.203125 31.785156 C 25.046875 31.785156 24.886719 31.789062 24.730469 31.785156 C 24.617188 31.789062 24.617188 31.789062 24.503906 31.789062 C 23.933594 31.785156 23.933594 31.785156 23.703125 31.617188 C 23.5625 31.4375 23.5625 31.4375 23.5 31 C 22.757812 31 22.015625 31 21.25 31 C 21.230469 31.144531 21.207031 31.289062 21.1875 31.4375 C 21.019531 31.640625 20.921875 31.726562 20.660156 31.78125 C 20.394531 31.792969 20.183594 31.78125 19.964844 31.621094 C 19.8125 31.4375 19.8125 31.4375 19.75 31 C 19.007812 31 18.265625 31 17.5 31 C 17.480469 31.144531 17.457031 31.289062 17.4375 31.4375 C 17.269531 31.640625 17.171875 31.726562 16.910156 31.78125 C 16.632812 31.796875 16.4375 31.78125 16.214844 31.601562 C 15.953125 31.320312 15.976562 31.101562 15.980469 30.726562 C 16.046875 30.007812 16.417969 29.402344 16.960938 28.933594 C 17.636719 28.429688 18.296875 28.285156 19.132812 28.402344 C 19.558594 28.492188 19.875 28.65625 20.226562 28.910156 C 20.382812 29.019531 20.382812 29.019531 20.625 29 C 20.785156 28.910156 20.785156 28.910156 20.949219 28.792969 C 21.585938 28.378906 22.136719 28.300781 22.894531 28.390625 C 23.554688 28.53125 24.160156 28.929688 24.554688 29.472656 C 24.71875 29.734375 24.820312 29.945312 24.875 30.25 C 25.179688 30.246094 25.484375 30.242188 25.792969 30.238281 C 25.894531 30.234375 26 30.234375 26.101562 30.234375 C 27.058594 30.222656 27.894531 30.121094 28.625 29.4375 C 29.164062 28.816406 29.441406 28.183594 29.410156 27.351562 C 29.355469 26.753906 29.085938 26.191406 28.867188 25.636719 C 28.761719 25.375 28.660156 25.109375 28.558594 24.84375 C 28.359375 24.324219 28.15625 23.804688 27.957031 23.289062 C 27.617188 22.414062 27.277344 21.542969 26.941406 20.667969 C 26.882812 20.519531 26.828125 20.371094 26.769531 20.222656 C 26.476562 19.464844 26.183594 18.707031 25.894531 17.949219 C 25.863281 17.875 25.835938 17.800781 25.808594 17.722656 C 25.667969 17.367188 25.53125 17.011719 25.398438 16.65625 C 25.347656 16.527344 25.296875 16.398438 25.25 16.273438 C 25.226562 16.214844 25.207031 16.160156 25.183594 16.101562 C 25.042969 15.730469 24.898438 15.367188 24.75 15 C 24.546875 15 24.464844 15.144531 24.324219 15.28125 C 23.167969 16.363281 21.691406 16.796875 20.136719 16.765625 C 18.605469 16.707031 17.390625 15.976562 16.3125 14.9375 C 16.109375 15.375 15.921875 15.816406 15.75 16.269531 C 15.730469 16.328125 15.707031 16.386719 15.683594 16.449219 C 15.632812 16.578125 15.585938 16.707031 15.535156 16.835938 C 15.40625 17.1875 15.273438 17.539062 15.140625 17.886719 C 15.113281 17.960938 15.085938 18.03125 15.058594 18.105469 C 14.78125 18.828125 14.503906 19.550781 14.222656 20.273438 C 14.125 20.527344 14.027344 20.777344 13.929688 21.03125 C 13.902344 21.09375 13.878906 21.15625 13.855469 21.222656 C 13.378906 22.445312 12.910156 23.667969 12.441406 24.890625 C 12.378906 25.050781 12.316406 25.214844 12.253906 25.375 C 12.167969 25.597656 12.085938 25.816406 12 26.039062 C 11.957031 26.148438 11.917969 26.257812 11.875 26.367188 C 11.847656 26.433594 11.824219 26.496094 11.800781 26.5625 C 11.78125 26.617188 11.757812 26.667969 11.738281 26.726562 C 11.492188 27.460938 11.636719 28.1875 11.945312 28.882812 C 12.308594 29.566406 12.902344 29.945312 13.625 30.1875 C 13.757812 30.195312 13.886719 30.203125 14.019531 30.207031 C 14.433594 30.238281 14.636719 30.300781 14.914062 30.613281 C 15.066406 30.851562 15.039062 31.101562 15 31.375 C 14.855469 31.632812 14.714844 31.722656 14.4375 31.8125 C 14.226562 31.828125 14.226562 31.828125 13.984375 31.828125 C 13.9375 31.828125 13.894531 31.828125 13.847656 31.828125 C 13.695312 31.832031 13.542969 31.832031 13.394531 31.832031 C 13.285156 31.832031 13.175781 31.832031 13.070312 31.832031 C 12.773438 31.832031 12.480469 31.832031 12.1875 31.832031 C 12.003906 31.832031 11.816406 31.832031 11.632812 31.835938 C 10.992188 31.835938 10.347656 31.835938 9.707031 31.835938 C 9.109375 31.835938 8.507812 31.835938 7.910156 31.839844 C 7.398438 31.839844 6.882812 31.839844 6.371094 31.839844 C 6.0625 31.839844 5.753906 31.839844 5.449219 31.84375 C 5.160156 31.84375 4.871094 31.84375 4.582031 31.84375 C 4.476562 31.84375 4.371094 31.84375 4.265625 31.84375 C 3.269531 31.851562 2.460938 31.675781 1.707031 30.988281 C 1.125 30.375 0.972656 29.671875 0.984375 28.855469 C 1.035156 28.117188 1.371094 27.511719 1.90625 27.003906 C 2.550781 26.472656 3.238281 26.3125 4.0625 26.375 C 4.492188 26.441406 4.914062 26.542969 5.339844 26.636719 C 5.457031 26.664062 5.574219 26.6875 5.695312 26.714844 C 5.976562 26.777344 6.257812 26.839844 6.539062 26.90625 C 6.738281 26.949219 6.9375 26.992188 7.136719 27.035156 C 7.253906 27.0625 7.367188 27.085938 7.484375 27.113281 C 7.535156 27.125 7.582031 27.132812 7.632812 27.144531 C 8.007812 27.234375 8.285156 27.363281 8.5 27.6875 C 8.503906 27.832031 8.503906 27.980469 8.5 28.125 C 8.605469 28.136719 8.605469 28.136719 8.710938 28.148438 C 9.011719 28.183594 9.300781 28.25 9.59375 28.316406 C 9.644531 28.328125 9.695312 28.339844 9.75 28.351562 C 9.875 28.378906 10 28.410156 10.125 28.4375 C 10.113281 28.394531 10.105469 28.355469 10.09375 28.3125 C 10.054688 28.085938 10.046875 27.863281 10.042969 27.636719 C 10.042969 27.597656 10.039062 27.554688 10.039062 27.511719 C 10.023438 26.507812 10.507812 25.515625 10.867188 24.597656 C 10.921875 24.453125 10.976562 24.3125 11.035156 24.167969 C 11.152344 23.867188 11.269531 23.570312 11.382812 23.269531 C 11.644531 22.605469 11.898438 21.9375 12.15625 21.273438 C 12.300781 20.898438 12.445312 20.527344 12.585938 20.15625 C 12.851562 19.46875 13.117188 18.78125 13.382812 18.09375 C 13.53125 17.714844 13.675781 17.335938 13.820312 16.960938 C 13.878906 16.816406 13.933594 16.667969 13.988281 16.523438 C 14.015625 16.453125 14.042969 16.382812 14.070312 16.3125 C 14.230469 15.90625 14.382812 15.5 14.539062 15.09375 C 14.628906 14.851562 14.722656 14.613281 14.816406 14.371094 C 14.855469 14.261719 14.898438 14.148438 14.941406 14.039062 C 14.996094 13.890625 15.054688 13.742188 15.113281 13.589844 C 15.128906 13.546875 15.144531 13.503906 15.160156 13.460938 C 15.320312 13.042969 15.554688 12.746094 16.015625 12.730469 Z M 16.015625 12.730469 "/>
<path style=" stroke:none;fill-rule:nonzero;fill:rgb(99.215686%,99.215686%,99.215686%);fill-opacity:1;" d="M 4.988281 28.136719 C 5.136719 28.171875 5.28125 28.207031 5.425781 28.242188 C 5.703125 28.304688 5.976562 28.371094 6.25 28.4375 C 7.191406 28.734375 7.191406 28.734375 8.117188 28.625 C 8.296875 28.488281 8.421875 28.335938 8.5 28.125 C 8.863281 28.167969 9.222656 28.222656 9.582031 28.296875 C 9.65625 28.308594 9.65625 28.308594 9.734375 28.324219 C 10.09375 28.398438 10.09375 28.398438 10.242188 28.578125 C 10.320312 28.765625 10.390625 28.949219 10.457031 29.140625 C 10.578125 29.46875 10.722656 29.738281 10.929688 30.019531 C 11 30.125 11 30.125 11 30.25 C 10.007812 30.257812 9.011719 30.261719 8.019531 30.265625 C 7.558594 30.269531 7.097656 30.269531 6.632812 30.273438 C 6.230469 30.277344 5.828125 30.277344 5.429688 30.28125 C 5.214844 30.28125 5.003906 30.28125 4.789062 30.28125 C 4.550781 30.285156 4.3125 30.285156 4.074219 30.285156 C 3.96875 30.289062 3.96875 30.289062 3.863281 30.289062 C 3.4375 30.285156 3.136719 30.226562 2.8125 29.9375 C 2.554688 29.605469 2.46875 29.332031 2.476562 28.917969 C 2.527344 28.578125 2.722656 28.328125 2.972656 28.097656 C 3.535156 27.703125 4.378906 27.988281 4.988281 28.136719 Z M 4.988281 28.136719 "/>
<path style=" stroke:none;fill-rule:nonzero;fill:rgb(98.431373%,98.431373%,98.823529%);fill-opacity:1;" d="M 19.140625 29.976562 C 19.386719 30.117188 19.535156 30.257812 19.6875 30.5 C 19.71875 30.746094 19.71875 30.746094 19.75 31 C 19.007812 31 18.265625 31 17.5 31 C 17.566406 30.542969 17.636719 30.347656 17.972656 30.042969 C 18.324219 29.800781 18.757812 29.800781 19.140625 29.976562 Z M 19.140625 29.976562 "/>
<path style=" stroke:none;fill-rule:nonzero;fill:rgb(98.823529%,98.823529%,98.823529%);fill-opacity:1;" d="M 22.894531 29.980469 C 23.183594 30.144531 23.382812 30.375 23.5 30.6875 C 23.5 30.789062 23.5 30.894531 23.5 31 C 22.757812 31 22.015625 31 21.25 31 C 21.3125 30.5 21.339844 30.371094 21.6875 30.0625 C 22.066406 29.800781 22.480469 29.792969 22.894531 29.980469 Z M 22.894531 29.980469 "/>
<path style=" stroke:none;fill-rule:nonzero;fill:rgb(28.235295%,30.588236%,34.117648%);fill-opacity:1;" d="M 23.1875 20.25 C 23.441406 20.363281 23.605469 20.511719 23.75 20.75 C 23.789062 21.0625 23.753906 21.246094 23.5625 21.5 C 23.390625 21.699219 23.25 21.742188 22.984375 21.777344 C 22.675781 21.742188 22.511719 21.605469 22.3125 21.375 C 22.234375 21.144531 22.222656 20.992188 22.25 20.75 C 22.503906 20.351562 22.707031 20.21875 23.1875 20.25 Z M 23.1875 20.25 "/>
<path style=" stroke:none;fill-rule:nonzero;fill:rgb(28.235295%,30.588236%,34.117648%);fill-opacity:1;" d="M 18.1875 20.25 C 18.441406 20.363281 18.605469 20.511719 18.75 20.75 C 18.789062 21.0625 18.753906 21.246094 18.5625 21.5 C 18.390625 21.699219 18.25 21.742188 17.984375 21.777344 C 17.675781 21.742188 17.511719 21.605469 17.3125 21.375 C 17.234375 21.144531 17.222656 20.992188 17.25 20.75 C 17.503906 20.351562 17.707031 20.21875 18.1875 20.25 Z M 18.1875 20.25 "/>
</g>
</svg>
