<?xml version="1.0" encoding="UTF-8"?>
<svg xmlns="http://www.w3.org/2000/svg" xmlns:xlink="http://www.w3.org/1999/xlink" width="32px" height="32px" viewBox="0 0 32 32" version="1.1">
<g id="surface1">
<path style=" stroke:none;fill-rule:nonzero;fill:rgb(0%,0%,0%);fill-opacity:1;" d="M 16.1875 0.3125 C 16.519531 0.554688 16.804688 0.867188 17.085938 1.164062 C 17.945312 2.054688 18.839844 2.621094 20.117188 2.6875 C 21.210938 2.679688 22.238281 2.332031 23.023438 1.554688 C 23.207031 1.363281 23.390625 1.171875 23.574219 0.980469 C 24.230469 0.285156 24.230469 0.285156 24.6875 0.1875 C 24.835938 0.1875 24.835938 0.1875 24.953125 0.222656 C 24.992188 0.234375 25.03125 0.242188 25.070312 0.253906 C 25.289062 0.363281 25.414062 0.507812 25.507812 0.734375 C 25.53125 0.835938 25.53125 0.835938 25.558594 0.9375 C 25.589844 1.054688 25.589844 1.054688 25.621094 1.175781 C 25.75 1.679688 25.863281 2.1875 25.972656 2.695312 C 26.003906 2.820312 26.03125 2.945312 26.058594 3.070312 C 26.117188 3.34375 26.179688 3.613281 26.238281 3.886719 C 26.390625 4.558594 26.539062 5.230469 26.691406 5.902344 C 26.746094 6.144531 26.796875 6.386719 26.851562 6.625 C 27.242188 8.375 27.636719 10.125 28.03125 11.871094 C 28.140625 12.355469 28.25 12.835938 28.359375 13.320312 C 28.398438 13.496094 28.4375 13.671875 28.476562 13.847656 C 28.492188 13.910156 28.492188 13.910156 28.507812 13.976562 C 28.578125 14.28125 28.644531 14.589844 28.714844 14.894531 C 29.066406 16.460938 29.421875 18.027344 29.773438 19.59375 C 29.855469 19.960938 29.9375 20.328125 30.023438 20.691406 C 30.183594 21.40625 30.34375 22.121094 30.503906 22.832031 C 30.585938 23.195312 30.667969 23.558594 30.75 23.921875 C 30.804688 24.152344 30.855469 24.386719 30.910156 24.621094 C 30.933594 24.726562 30.957031 24.832031 30.984375 24.941406 C 31.355469 26.542969 31.347656 28.097656 30.457031 29.539062 C 30.222656 29.898438 29.929688 30.199219 29.625 30.5 C 29.585938 30.539062 29.546875 30.582031 29.507812 30.625 C 28.667969 31.441406 27.386719 31.8125 26.246094 31.828125 C 26.171875 31.828125 26.101562 31.832031 26.023438 31.832031 C 25.730469 31.804688 25.53125 31.71875 25.320312 31.507812 C 25.183594 31.25 25.210938 30.972656 25.25 30.6875 C 25.382812 30.457031 25.507812 30.355469 25.75 30.25 C 25.875 30.226562 25.875 30.226562 26.011719 30.21875 C 26.058594 30.214844 26.109375 30.210938 26.160156 30.207031 C 26.238281 30.203125 26.238281 30.203125 26.316406 30.195312 C 27.332031 30.101562 28.179688 29.699219 28.875 28.9375 C 29.515625 28.0625 29.667969 27.105469 29.546875 26.050781 C 29.5 25.738281 29.425781 25.433594 29.355469 25.128906 C 29.332031 25.027344 29.308594 24.929688 29.289062 24.828125 C 29.226562 24.554688 29.164062 24.285156 29.101562 24.011719 C 29.035156 23.71875 28.96875 23.421875 28.902344 23.128906 C 28.789062 22.621094 28.671875 22.113281 28.554688 21.605469 C 28.375 20.808594 28.191406 20.011719 28.011719 19.210938 C 27.949219 18.9375 27.890625 18.667969 27.828125 18.394531 C 27.8125 18.328125 27.796875 18.257812 27.78125 18.1875 C 27.671875 17.699219 27.5625 17.214844 27.449219 16.726562 C 27.007812 14.773438 26.570312 12.820312 26.132812 10.867188 C 26.101562 10.734375 26.074219 10.597656 26.042969 10.464844 C 26.027344 10.398438 26.015625 10.335938 26 10.265625 C 25.925781 9.9375 25.851562 9.609375 25.78125 9.28125 C 25.765625 9.21875 25.75 9.15625 25.738281 9.089844 C 25.421875 7.675781 25.101562 6.261719 24.785156 4.847656 C 24.773438 4.792969 24.761719 4.738281 24.746094 4.683594 C 24.601562 4.039062 24.457031 3.394531 24.3125 2.75 C 24.128906 2.75 24.050781 2.855469 23.917969 2.96875 C 22.585938 4.082031 21.082031 4.359375 19.375 4.25 C 18.167969 4.09375 17.097656 3.484375 16.25 2.625 C 16.011719 3.46875 15.824219 4.324219 15.632812 5.183594 C 15.597656 5.34375 15.558594 5.503906 15.523438 5.664062 C 15.445312 6.007812 15.371094 6.351562 15.292969 6.695312 C 15.179688 7.195312 15.070312 7.695312 14.957031 8.195312 C 14.777344 8.984375 14.601562 9.777344 14.425781 10.566406 C 14.199219 11.570312 13.976562 12.574219 13.75 13.578125 C 13.585938 14.3125 13.417969 15.046875 13.253906 15.78125 C 13.195312 16.050781 13.132812 16.320312 13.074219 16.589844 C 13.058594 16.660156 13.042969 16.726562 13.027344 16.796875 C 12.816406 17.734375 12.605469 18.675781 12.394531 19.617188 C 12.230469 20.339844 12.066406 21.0625 11.902344 21.785156 C 11.792969 22.265625 11.683594 22.75 11.574219 23.230469 C 11.492188 23.597656 11.410156 23.96875 11.324219 24.335938 C 11.292969 24.488281 11.257812 24.636719 11.222656 24.789062 C 10.90625 26.167969 10.65625 27.347656 11.4375 28.625 C 11.945312 29.390625 12.6875 29.917969 13.589844 30.105469 C 13.953125 30.164062 14.316406 30.191406 14.6875 30.207031 C 15.042969 30.230469 15.203125 30.296875 15.4375 30.5625 C 15.554688 30.796875 15.535156 31.058594 15.5 31.3125 C 15.394531 31.507812 15.261719 31.648438 15.0625 31.75 C 14.902344 31.757812 14.746094 31.757812 14.585938 31.757812 C 14.539062 31.757812 14.488281 31.757812 14.4375 31.761719 C 14.269531 31.761719 14.101562 31.761719 13.933594 31.761719 C 13.816406 31.761719 13.695312 31.761719 13.574219 31.761719 C 13.25 31.761719 12.925781 31.765625 12.597656 31.765625 C 12.394531 31.765625 12.191406 31.765625 11.988281 31.765625 C 11.351562 31.765625 10.714844 31.769531 10.078125 31.769531 C 9.34375 31.769531 8.605469 31.769531 7.871094 31.773438 C 7.304688 31.773438 6.734375 31.777344 6.167969 31.777344 C 5.828125 31.777344 5.488281 31.777344 5.148438 31.777344 C 4.832031 31.78125 4.511719 31.78125 4.191406 31.78125 C 4.074219 31.78125 3.957031 31.78125 3.839844 31.78125 C 2.851562 31.789062 2.179688 31.648438 1.441406 30.945312 C 0.871094 30.347656 0.722656 29.664062 0.738281 28.863281 C 0.777344 28.121094 1.121094 27.511719 1.65625 27.003906 C 2.304688 26.46875 2.988281 26.316406 3.8125 26.375 C 4.183594 26.429688 4.546875 26.519531 4.910156 26.605469 C 5.011719 26.628906 5.109375 26.652344 5.210938 26.675781 C 5.453125 26.730469 5.695312 26.789062 5.933594 26.84375 C 6.109375 26.886719 6.285156 26.925781 6.460938 26.964844 C 6.566406 26.992188 6.671875 27.015625 6.777344 27.042969 C 6.824219 27.054688 6.867188 27.0625 6.914062 27.074219 C 7.207031 27.148438 7.371094 27.265625 7.5625 27.5 C 7.65625 27.777344 7.667969 28.019531 7.554688 28.292969 C 7.398438 28.484375 7.289062 28.582031 7.0625 28.6875 C 6.34375 28.730469 5.566406 28.4375 4.875 28.261719 C 4.703125 28.21875 4.527344 28.175781 4.355469 28.132812 C 4.300781 28.121094 4.25 28.109375 4.195312 28.09375 C 3.699219 27.972656 3.25 27.917969 2.796875 28.175781 C 2.601562 28.308594 2.480469 28.476562 2.375 28.6875 C 2.332031 29.148438 2.328125 29.507812 2.625 29.875 C 3.078125 30.230469 3.59375 30.195312 4.140625 30.195312 C 4.210938 30.195312 4.28125 30.195312 4.351562 30.195312 C 4.582031 30.195312 4.816406 30.195312 5.046875 30.195312 C 5.207031 30.195312 5.367188 30.195312 5.527344 30.191406 C 5.90625 30.191406 6.285156 30.191406 6.664062 30.191406 C 7.097656 30.191406 7.53125 30.191406 7.960938 30.191406 C 8.847656 30.191406 9.738281 30.1875 10.625 30.1875 C 10.59375 30.152344 10.566406 30.121094 10.535156 30.085938 C 10.496094 30.039062 10.453125 29.996094 10.414062 29.949219 C 10.375 29.902344 10.335938 29.859375 10.296875 29.8125 C 9.46875 28.84375 9.242188 27.515625 9.292969 26.28125 C 9.324219 25.910156 9.40625 25.554688 9.484375 25.191406 C 9.503906 25.101562 9.523438 25.011719 9.542969 24.925781 C 9.601562 24.671875 9.65625 24.421875 9.710938 24.167969 C 9.75 23.992188 9.789062 23.820312 9.828125 23.644531 C 10.03125 22.730469 10.238281 21.8125 10.445312 20.898438 C 10.539062 20.488281 10.628906 20.082031 10.722656 19.671875 C 10.742188 19.589844 10.761719 19.503906 10.78125 19.417969 C 10.808594 19.289062 10.835938 19.164062 10.867188 19.035156 C 10.925781 18.773438 10.984375 18.507812 11.042969 18.246094 C 11.429688 16.535156 11.816406 14.820312 12.199219 13.105469 C 12.34375 12.472656 12.484375 11.835938 12.628906 11.203125 C 12.707031 10.84375 12.789062 10.484375 12.871094 10.125 C 12.890625 10.035156 12.910156 9.945312 12.929688 9.855469 C 13.175781 8.761719 13.421875 7.664062 13.667969 6.566406 C 13.816406 5.90625 13.960938 5.246094 14.109375 4.589844 C 14.210938 4.132812 14.3125 3.675781 14.414062 3.21875 C 14.476562 2.941406 14.539062 2.664062 14.601562 2.386719 C 14.628906 2.261719 14.660156 2.132812 14.6875 2.007812 C 14.726562 1.832031 14.765625 1.660156 14.804688 1.488281 C 14.8125 1.4375 14.824219 1.386719 14.835938 1.335938 C 14.9375 0.894531 15.035156 0.503906 15.4375 0.25 C 15.707031 0.160156 15.933594 0.203125 16.1875 0.3125 Z M 16.1875 0.3125 "/>
<path style=" stroke:none;fill-rule:nonzero;fill:rgb(0%,0%,0%);fill-opacity:1;" d="M 15.0625 17.75 C 15.308594 17.875 15.398438 17.949219 15.488281 18.210938 C 15.617188 18.757812 15.730469 19.3125 15.839844 19.863281 C 15.859375 19.96875 15.878906 20.074219 15.898438 20.175781 C 15.945312 20.398438 15.988281 20.621094 16.03125 20.84375 C 16.101562 21.195312 16.171875 21.546875 16.242188 21.898438 C 16.441406 22.902344 16.640625 23.902344 16.839844 24.902344 C 16.949219 25.457031 17.058594 26.007812 17.167969 26.5625 C 17.238281 26.910156 17.308594 27.261719 17.375 27.613281 C 17.417969 27.828125 17.460938 28.046875 17.507812 28.265625 C 17.527344 28.363281 17.546875 28.464844 17.566406 28.566406 C 17.683594 29.363281 17.683594 29.363281 18.042969 30.058594 C 18.339844 30.195312 18.605469 30.199219 18.921875 30.152344 C 19.117188 30.066406 19.210938 30 19.324219 29.820312 C 19.441406 29.511719 19.410156 29.164062 19.40625 28.835938 C 19.40625 28.75 19.40625 28.664062 19.40625 28.574219 C 19.40625 28.390625 19.40625 28.203125 19.40625 28.015625 C 19.40625 27.71875 19.40625 27.425781 19.410156 27.128906 C 19.410156 26.554688 19.410156 25.984375 19.410156 25.410156 C 19.410156 24.679688 19.410156 23.949219 19.414062 23.21875 C 19.414062 22.925781 19.414062 22.632812 19.414062 22.339844 C 19.414062 22.15625 19.414062 21.976562 19.414062 21.792969 C 19.414062 21.667969 19.414062 21.542969 19.414062 21.417969 C 19.414062 21.34375 19.414062 21.269531 19.414062 21.191406 C 19.414062 21.128906 19.414062 21.0625 19.414062 20.996094 C 19.449219 20.726562 19.546875 20.515625 19.742188 20.320312 C 20 20.183594 20.277344 20.210938 20.5625 20.25 C 20.792969 20.382812 20.902344 20.507812 21 20.75 C 21.015625 20.917969 21.015625 20.917969 21.015625 21.117188 C 21.015625 21.191406 21.015625 21.265625 21.015625 21.34375 C 21.015625 21.425781 21.015625 21.507812 21.015625 21.59375 C 21.015625 21.679688 21.015625 21.769531 21.015625 21.855469 C 21.015625 22.042969 21.015625 22.230469 21.015625 22.421875 C 21.015625 22.71875 21.019531 23.015625 21.019531 23.3125 C 21.023438 24.160156 21.023438 25.007812 21.023438 25.855469 C 21.023438 26.320312 21.023438 26.789062 21.027344 27.257812 C 21.027344 27.554688 21.027344 27.851562 21.027344 28.144531 C 21.027344 28.328125 21.027344 28.515625 21.03125 28.699219 C 21.03125 28.824219 21.03125 28.949219 21.027344 29.078125 C 21.03125 29.621094 21.03125 29.621094 21.3125 30.0625 C 21.457031 30.132812 21.546875 30.140625 21.707031 30.144531 C 21.753906 30.148438 21.800781 30.148438 21.851562 30.152344 C 22.066406 30.113281 22.15625 30.027344 22.3125 29.875 C 22.398438 29.667969 22.398438 29.667969 22.441406 29.425781 C 22.453125 29.382812 22.464844 29.339844 22.472656 29.292969 C 22.503906 29.15625 22.535156 29.015625 22.5625 28.875 C 22.570312 28.832031 22.582031 28.789062 22.589844 28.742188 C 22.65625 28.425781 22.71875 28.109375 22.78125 27.792969 C 22.800781 27.6875 22.824219 27.582031 22.84375 27.480469 C 22.886719 27.257812 22.929688 27.035156 22.976562 26.8125 C 23.042969 26.460938 23.113281 26.109375 23.183594 25.757812 C 23.378906 24.761719 23.578125 23.761719 23.773438 22.761719 C 23.882812 22.210938 23.992188 21.65625 24.101562 21.101562 C 24.160156 20.8125 24.21875 20.519531 24.273438 20.226562 C 24.328125 19.953125 24.382812 19.679688 24.4375 19.40625 C 24.457031 19.304688 24.476562 19.203125 24.496094 19.101562 C 24.523438 18.964844 24.550781 18.828125 24.578125 18.691406 C 24.601562 18.578125 24.601562 18.578125 24.625 18.460938 C 24.707031 18.1875 24.824219 17.953125 25.0625 17.789062 C 25.351562 17.699219 25.644531 17.710938 25.929688 17.820312 C 26.101562 17.972656 26.171875 18.097656 26.25 18.3125 C 26.265625 18.625 26.230469 18.917969 26.167969 19.226562 C 26.15625 19.269531 26.148438 19.316406 26.140625 19.363281 C 26.109375 19.515625 26.078125 19.667969 26.046875 19.820312 C 26.027344 19.929688 26.003906 20.039062 25.984375 20.148438 C 25.925781 20.445312 25.867188 20.742188 25.804688 21.042969 C 25.757812 21.289062 25.707031 21.539062 25.65625 21.789062 C 25.539062 22.375 25.421875 22.960938 25.304688 23.546875 C 25.183594 24.152344 25.066406 24.757812 24.945312 25.359375 C 24.84375 25.882812 24.738281 26.402344 24.632812 26.921875 C 24.574219 27.230469 24.511719 27.539062 24.449219 27.851562 C 24.390625 28.144531 24.332031 28.433594 24.273438 28.726562 C 24.253906 28.832031 24.230469 28.9375 24.210938 29.046875 C 24.046875 29.890625 23.871094 30.730469 23.1875 31.3125 C 22.546875 31.734375 21.945312 31.835938 21.1875 31.75 C 20.875 31.660156 20.585938 31.535156 20.3125 31.355469 C 20.179688 31.292969 20.179688 31.292969 20.023438 31.378906 C 19.960938 31.414062 19.902344 31.453125 19.84375 31.488281 C 19.222656 31.863281 18.402344 31.855469 17.703125 31.695312 C 17.148438 31.476562 16.6875 31.117188 16.402344 30.585938 C 16.292969 30.332031 16.234375 30.082031 16.175781 29.8125 C 16.164062 29.753906 16.148438 29.695312 16.136719 29.632812 C 15.917969 28.632812 15.71875 27.628906 15.515625 26.628906 C 15.492188 26.515625 15.46875 26.402344 15.449219 26.289062 C 15.351562 25.820312 15.257812 25.347656 15.164062 24.878906 C 15.03125 24.210938 14.894531 23.542969 14.761719 22.871094 C 14.664062 22.398438 14.570312 21.925781 14.472656 21.453125 C 14.417969 21.171875 14.359375 20.890625 14.304688 20.609375 C 14.25 20.34375 14.195312 20.082031 14.144531 19.816406 C 14.125 19.71875 14.105469 19.621094 14.085938 19.527344 C 13.863281 18.441406 13.863281 18.441406 14.070312 18.058594 C 14.386719 17.726562 14.613281 17.695312 15.0625 17.75 Z M 15.0625 17.75 "/>
<path style=" stroke:none;fill-rule:nonzero;fill:rgb(0%,0%,0%);fill-opacity:1;" d="M 23.0625 7.75 C 23.257812 7.855469 23.398438 7.988281 23.5 8.1875 C 23.53125 8.441406 23.558594 8.703125 23.433594 8.933594 C 23.285156 9.117188 23.164062 9.238281 22.925781 9.265625 C 22.4375 9.285156 22.4375 9.285156 22.214844 9.101562 C 21.980469 8.851562 21.976562 8.679688 21.976562 8.347656 C 22.015625 8.089844 22.125 7.988281 22.3125 7.8125 C 22.546875 7.695312 22.808594 7.714844 23.0625 7.75 Z M 23.0625 7.75 "/>
<path style=" stroke:none;fill-rule:nonzero;fill:rgb(0%,0%,0%);fill-opacity:1;" d="M 18.0625 7.75 C 18.257812 7.855469 18.398438 7.988281 18.5 8.1875 C 18.53125 8.441406 18.558594 8.703125 18.433594 8.933594 C 18.285156 9.117188 18.164062 9.238281 17.925781 9.265625 C 17.4375 9.285156 17.4375 9.285156 17.214844 9.101562 C 16.980469 8.851562 16.976562 8.679688 16.976562 8.347656 C 17.015625 8.089844 17.125 7.988281 17.3125 7.8125 C 17.546875 7.695312 17.808594 7.714844 18.0625 7.75 Z M 18.0625 7.75 "/>
</g>
</svg>
