<?xml version="1.0" encoding="UTF-8"?>
<svg xmlns="http://www.w3.org/2000/svg" xmlns:xlink="http://www.w3.org/1999/xlink" width="32px" height="32px" viewBox="0 0 32 32" version="1.1">
<g id="surface1">
<path style=" stroke:none;fill-rule:nonzero;fill:rgb(0%,0%,0%);fill-opacity:1;" d="M 16.1875 0.3125 C 16.511719 0.554688 16.789062 0.847656 17.066406 1.140625 C 17.847656 1.957031 18.777344 2.597656 19.953125 2.636719 C 21.246094 2.660156 22.25 2.304688 23.203125 1.417969 C 23.328125 1.300781 23.445312 1.175781 23.566406 1.050781 C 23.609375 1.003906 23.652344 0.960938 23.699219 0.914062 C 23.78125 0.824219 23.867188 0.734375 23.949219 0.644531 C 24.226562 0.351562 24.464844 0.214844 24.875 0.1875 C 25.128906 0.234375 25.261719 0.367188 25.425781 0.566406 C 25.578125 0.816406 25.621094 1.101562 25.683594 1.386719 C 25.699219 1.460938 25.714844 1.535156 25.734375 1.609375 C 25.769531 1.773438 25.808594 1.941406 25.84375 2.105469 C 25.90625 2.386719 25.96875 2.664062 26.03125 2.945312 C 26.128906 3.390625 26.226562 3.832031 26.324219 4.277344 C 26.511719 5.121094 26.703125 5.964844 26.890625 6.808594 C 26.976562 7.191406 27.0625 7.574219 27.148438 7.957031 C 27.15625 8 27.167969 8.042969 27.179688 8.085938 C 27.328125 8.757812 27.480469 9.433594 27.628906 10.105469 C 27.640625 10.148438 27.648438 10.195312 27.660156 10.242188 C 27.699219 10.425781 27.742188 10.609375 27.78125 10.792969 C 28.269531 12.976562 28.761719 15.160156 29.253906 17.34375 C 29.359375 17.8125 29.464844 18.277344 29.570312 18.746094 C 29.585938 18.828125 29.605469 18.914062 29.625 18.996094 C 29.660156 19.15625 29.699219 19.320312 29.734375 19.484375 C 29.789062 19.71875 29.839844 19.957031 29.894531 20.191406 C 30.472656 22.761719 30.472656 22.761719 30.707031 23.808594 C 30.746094 23.980469 30.785156 24.15625 30.824219 24.332031 C 30.875 24.5625 30.925781 24.789062 30.976562 25.019531 C 30.992188 25.082031 31.007812 25.144531 31.019531 25.210938 C 31.359375 26.71875 31.253906 28.167969 30.4375 29.5 C 30.285156 29.722656 30.121094 29.925781 29.9375 30.125 C 29.894531 30.171875 29.855469 30.21875 29.8125 30.269531 C 29.007812 31.132812 27.828125 31.695312 26.648438 31.761719 C 26.433594 31.769531 26.222656 31.769531 26.011719 31.769531 C 25.878906 31.769531 25.746094 31.769531 25.613281 31.773438 C 25.527344 31.773438 25.441406 31.773438 25.359375 31.773438 C 25.28125 31.773438 25.207031 31.773438 25.125 31.773438 C 24.9375 31.75 24.9375 31.75 24.820312 31.667969 C 24.699219 31.484375 24.707031 31.273438 24.691406 31.058594 C 24.632812 30.460938 24.496094 29.882812 24.0625 29.4375 C 23.835938 29.261719 23.597656 29.105469 23.335938 28.988281 C 23.1875 28.875 23.1875 28.875 23.148438 28.691406 C 23.148438 28.617188 23.148438 28.542969 23.148438 28.464844 C 23.148438 28.421875 23.148438 28.378906 23.148438 28.339844 C 23.148438 28.246094 23.148438 28.15625 23.152344 28.066406 C 23.152344 27.925781 23.152344 27.78125 23.152344 27.640625 C 23.148438 27.335938 23.152344 27.035156 23.152344 26.730469 C 23.152344 26.378906 23.152344 26.027344 23.152344 25.679688 C 23.152344 25.539062 23.152344 25.398438 23.15625 25.257812 C 23.15625 25.171875 23.15625 25.085938 23.152344 24.996094 C 23.15625 24.886719 23.15625 24.886719 23.15625 24.769531 C 23.117188 24.519531 23.03125 24.382812 22.875 24.1875 C 22.65625 24.078125 22.425781 24.085938 22.1875 24.125 C 22.015625 24.261719 21.910156 24.367188 21.8125 24.5625 C 21.804688 24.710938 21.804688 24.855469 21.804688 25.003906 C 21.804688 25.078125 21.804688 25.078125 21.804688 25.152344 C 21.8125 25.875 21.828125 26.601562 21.847656 27.324219 C 21.855469 27.554688 21.859375 27.78125 21.867188 28.011719 C 21.871094 28.238281 21.875 28.460938 21.882812 28.6875 C 21.886719 28.8125 21.886719 28.9375 21.890625 29.0625 C 21.902344 29.613281 21.902344 29.613281 22.1875 30.0625 C 22.355469 30.175781 22.515625 30.207031 22.714844 30.238281 C 22.996094 30.300781 23.144531 30.378906 23.3125 30.625 C 23.394531 30.90625 23.398438 31.121094 23.300781 31.398438 C 23.1875 31.5625 23.109375 31.644531 22.9375 31.75 C 22.78125 31.773438 22.78125 31.773438 22.597656 31.773438 C 22.527344 31.773438 22.457031 31.773438 22.386719 31.773438 C 22.3125 31.773438 22.234375 31.773438 22.15625 31.773438 C 22.035156 31.773438 22.035156 31.773438 21.910156 31.773438 C 21.683594 31.777344 21.460938 31.777344 21.234375 31.777344 C 20.992188 31.773438 20.746094 31.777344 20.503906 31.777344 C 20.027344 31.777344 19.554688 31.777344 19.078125 31.777344 C 18.691406 31.777344 18.300781 31.777344 17.914062 31.777344 C 17.859375 31.777344 17.804688 31.777344 17.75 31.777344 C 17.636719 31.777344 17.523438 31.777344 17.414062 31.777344 C 16.363281 31.777344 15.3125 31.777344 14.261719 31.777344 C 13.300781 31.777344 12.34375 31.777344 11.382812 31.78125 C 10.394531 31.78125 9.410156 31.78125 8.425781 31.78125 C 7.871094 31.78125 7.316406 31.78125 6.765625 31.78125 C 6.292969 31.78125 5.820312 31.78125 5.351562 31.78125 C 5.109375 31.78125 4.867188 31.78125 4.628906 31.78125 C 4.367188 31.785156 4.105469 31.78125 3.84375 31.78125 C 3.769531 31.78125 3.695312 31.78125 3.617188 31.78125 C 2.816406 31.777344 2.15625 31.542969 1.5625 31 C 0.960938 30.335938 0.75 29.660156 0.785156 28.777344 C 0.839844 28.070312 1.179688 27.476562 1.695312 27.003906 C 2.410156 26.410156 3.15625 26.289062 4.0625 26.375 C 4.597656 26.457031 5.125 26.582031 5.652344 26.707031 C 5.855469 26.757812 6.058594 26.804688 6.265625 26.847656 C 6.460938 26.894531 6.65625 26.941406 6.855469 26.984375 C 6.925781 27 7 27.019531 7.074219 27.035156 C 7.710938 27.1875 7.710938 27.1875 7.9375 27.4375 C 7.996094 27.601562 7.996094 27.601562 8.027344 27.789062 C 8.097656 28.148438 8.195312 28.488281 8.308594 28.835938 C 8.324219 28.882812 8.339844 28.929688 8.355469 28.976562 C 8.476562 29.34375 8.601562 29.707031 8.925781 29.9375 C 9.171875 30.015625 9.316406 30.007812 9.5625 29.9375 C 9.707031 29.820312 9.792969 29.730469 9.875 29.5625 C 9.898438 29.222656 9.839844 29.003906 9.699219 28.695312 C 9.007812 27.085938 9.441406 25.476562 9.808594 23.84375 C 9.839844 23.703125 9.871094 23.566406 9.902344 23.425781 C 9.988281 23.050781 10.074219 22.675781 10.15625 22.300781 C 10.238281 21.9375 10.320312 21.578125 10.402344 21.214844 C 10.5625 20.492188 10.726562 19.769531 10.890625 19.046875 C 11.109375 18.0625 11.332031 17.074219 11.554688 16.089844 C 11.628906 15.75 11.707031 15.414062 11.78125 15.074219 C 11.800781 14.988281 11.820312 14.90625 11.839844 14.820312 C 11.980469 14.1875 12.125 13.554688 12.265625 12.917969 C 12.796875 10.558594 13.328125 8.195312 13.859375 5.835938 C 13.871094 5.769531 13.886719 5.703125 13.902344 5.632812 C 13.933594 5.503906 13.960938 5.375 13.992188 5.242188 C 14.058594 4.929688 14.128906 4.621094 14.199219 4.308594 C 14.320312 3.773438 14.441406 3.238281 14.554688 2.703125 C 14.605469 2.46875 14.65625 2.234375 14.710938 2 C 14.734375 1.894531 14.757812 1.785156 14.777344 1.675781 C 14.8125 1.527344 14.84375 1.378906 14.875 1.226562 C 14.886719 1.183594 14.894531 1.140625 14.902344 1.097656 C 14.96875 0.8125 15.070312 0.605469 15.25 0.375 C 15.578125 0.171875 15.839844 0.144531 16.1875 0.3125 Z M 17.1875 8 C 17.019531 8.253906 17.027344 8.453125 17.0625 8.75 C 17.167969 8.992188 17.257812 9.085938 17.5 9.1875 C 17.691406 9.21875 17.871094 9.222656 18.0625 9.1875 C 18.234375 9.050781 18.339844 8.945312 18.4375 8.75 C 18.460938 8.417969 18.464844 8.210938 18.25 7.9375 C 17.914062 7.710938 17.503906 7.742188 17.1875 8 Z M 22.1875 8 C 22.019531 8.253906 22.027344 8.453125 22.0625 8.75 C 22.167969 8.992188 22.257812 9.085938 22.5 9.1875 C 22.691406 9.21875 22.871094 9.222656 23.0625 9.1875 C 23.234375 9.050781 23.339844 8.945312 23.4375 8.75 C 23.460938 8.417969 23.464844 8.210938 23.25 7.9375 C 22.914062 7.710938 22.503906 7.742188 22.1875 8 Z M 17.375 24.3125 C 17.226562 24.539062 17.230469 24.757812 17.234375 25.019531 C 17.234375 25.066406 17.234375 25.109375 17.234375 25.160156 C 17.234375 25.308594 17.234375 25.460938 17.234375 25.609375 C 17.234375 25.714844 17.234375 25.820312 17.234375 25.925781 C 17.234375 26.144531 17.234375 26.367188 17.234375 26.585938 C 17.234375 26.867188 17.234375 27.148438 17.234375 27.429688 C 17.234375 27.648438 17.234375 27.867188 17.234375 28.082031 C 17.234375 28.1875 17.234375 28.289062 17.234375 28.394531 C 17.234375 28.539062 17.234375 28.683594 17.234375 28.832031 C 17.234375 28.875 17.234375 28.914062 17.234375 28.960938 C 17.234375 29.300781 17.285156 29.609375 17.472656 29.898438 C 17.699219 30.050781 17.917969 30.074219 18.1875 30.0625 C 18.421875 29.964844 18.558594 29.84375 18.6875 29.625 C 18.707031 29.457031 18.714844 29.304688 18.710938 29.136719 C 18.710938 29.089844 18.710938 29.039062 18.710938 28.988281 C 18.714844 28.828125 18.714844 28.664062 18.710938 28.503906 C 18.710938 28.390625 18.710938 28.28125 18.714844 28.167969 C 18.714844 27.929688 18.710938 27.695312 18.710938 27.460938 C 18.710938 27.160156 18.710938 26.855469 18.710938 26.554688 C 18.714844 26.324219 18.714844 26.089844 18.710938 25.859375 C 18.710938 25.746094 18.710938 25.636719 18.714844 25.527344 C 18.714844 25.371094 18.710938 25.214844 18.710938 25.058594 C 18.710938 25.011719 18.710938 24.96875 18.714844 24.917969 C 18.707031 24.582031 18.621094 24.386719 18.398438 24.136719 C 18.027344 23.953125 17.65625 24.007812 17.375 24.3125 Z M 17.375 24.3125 "/>
</g>
</svg>
