<?xml version="1.0" encoding="UTF-8"?>
<svg xmlns="http://www.w3.org/2000/svg" xmlns:xlink="http://www.w3.org/1999/xlink" width="28px" height="28px" viewBox="0 0 28 28" version="1.1">
<g id="surface1">
<path style=" stroke:none;fill-rule:nonzero;fill:rgb(0%,0%,0%);fill-opacity:1;" d="M 14.164062 0.273438 C 14.445312 0.484375 14.6875 0.742188 14.933594 1 C 15.617188 1.714844 16.429688 2.273438 17.457031 2.308594 C 18.589844 2.328125 19.46875 2.015625 20.300781 1.242188 C 20.410156 1.136719 20.515625 1.027344 20.621094 0.917969 C 20.660156 0.878906 20.695312 0.839844 20.734375 0.800781 C 20.808594 0.722656 20.882812 0.644531 20.957031 0.5625 C 21.199219 0.304688 21.40625 0.1875 21.765625 0.164062 C 21.988281 0.203125 22.105469 0.320312 22.246094 0.492188 C 22.382812 0.714844 22.417969 0.964844 22.472656 1.214844 C 22.488281 1.277344 22.503906 1.34375 22.515625 1.410156 C 22.550781 1.554688 22.582031 1.699219 22.613281 1.84375 C 22.667969 2.085938 22.722656 2.332031 22.777344 2.578125 C 22.863281 2.964844 22.949219 3.355469 23.035156 3.742188 C 23.199219 4.480469 23.363281 5.21875 23.53125 5.957031 C 23.605469 6.292969 23.679688 6.625 23.753906 6.960938 C 23.761719 7 23.773438 7.039062 23.78125 7.078125 C 23.914062 7.664062 24.042969 8.253906 24.175781 8.839844 C 24.183594 8.882812 24.195312 8.921875 24.203125 8.960938 C 24.238281 9.121094 24.273438 9.28125 24.308594 9.441406 C 24.738281 11.355469 25.167969 13.265625 25.597656 15.175781 C 25.6875 15.585938 25.78125 15.996094 25.871094 16.402344 C 25.890625 16.476562 25.90625 16.546875 25.921875 16.621094 C 25.953125 16.761719 25.984375 16.90625 26.015625 17.046875 C 26.0625 17.253906 26.109375 17.460938 26.15625 17.667969 C 26.664062 19.914062 26.664062 19.914062 26.867188 20.832031 C 26.902344 20.984375 26.9375 21.136719 26.96875 21.289062 C 27.015625 21.492188 27.058594 21.691406 27.105469 21.890625 C 27.117188 21.945312 27.128906 22.003906 27.144531 22.0625 C 27.4375 23.378906 27.347656 24.644531 26.632812 25.8125 C 26.5 26.007812 26.355469 26.183594 26.195312 26.359375 C 26.160156 26.402344 26.121094 26.441406 26.085938 26.484375 C 25.382812 27.238281 24.347656 27.734375 23.316406 27.792969 C 23.128906 27.796875 22.945312 27.800781 22.757812 27.796875 C 22.644531 27.796875 22.527344 27.800781 22.410156 27.800781 C 22.335938 27.800781 22.261719 27.800781 22.1875 27.800781 C 22.121094 27.800781 22.054688 27.800781 21.984375 27.800781 C 21.820312 27.78125 21.820312 27.78125 21.71875 27.710938 C 21.613281 27.550781 21.617188 27.363281 21.605469 27.175781 C 21.554688 26.652344 21.433594 26.148438 21.054688 25.757812 C 20.855469 25.605469 20.648438 25.46875 20.421875 25.367188 C 20.289062 25.265625 20.289062 25.265625 20.253906 25.105469 C 20.257812 25.039062 20.257812 24.972656 20.257812 24.90625 C 20.257812 24.871094 20.257812 24.832031 20.253906 24.796875 C 20.253906 24.71875 20.253906 24.636719 20.257812 24.558594 C 20.257812 24.433594 20.257812 24.308594 20.257812 24.183594 C 20.257812 23.917969 20.257812 23.65625 20.257812 23.390625 C 20.257812 23.082031 20.257812 22.777344 20.257812 22.46875 C 20.257812 22.347656 20.257812 22.222656 20.261719 22.101562 C 20.261719 22.023438 20.261719 21.949219 20.261719 21.875 C 20.261719 21.773438 20.261719 21.773438 20.261719 21.671875 C 20.230469 21.453125 20.152344 21.335938 20.015625 21.164062 C 19.824219 21.070312 19.621094 21.078125 19.414062 21.109375 C 19.261719 21.230469 19.171875 21.320312 19.085938 21.492188 C 19.082031 21.621094 19.078125 21.75 19.078125 21.878906 C 19.082031 21.941406 19.082031 21.941406 19.082031 22.007812 C 19.085938 22.640625 19.101562 23.277344 19.117188 23.910156 C 19.121094 24.109375 19.128906 24.308594 19.132812 24.511719 C 19.136719 24.707031 19.140625 24.902344 19.148438 25.101562 C 19.148438 25.210938 19.152344 25.320312 19.152344 25.429688 C 19.164062 25.914062 19.164062 25.914062 19.414062 26.304688 C 19.5625 26.40625 19.699219 26.429688 19.875 26.457031 C 20.121094 26.511719 20.25 26.582031 20.398438 26.796875 C 20.472656 27.042969 20.472656 27.230469 20.386719 27.472656 C 20.289062 27.617188 20.21875 27.691406 20.070312 27.78125 C 19.933594 27.800781 19.933594 27.800781 19.773438 27.800781 C 19.710938 27.800781 19.652344 27.804688 19.589844 27.804688 C 19.523438 27.804688 19.453125 27.804688 19.386719 27.800781 C 19.28125 27.804688 19.28125 27.804688 19.171875 27.804688 C 18.972656 27.804688 18.777344 27.804688 18.578125 27.804688 C 18.367188 27.804688 18.15625 27.804688 17.941406 27.804688 C 17.523438 27.804688 17.109375 27.804688 16.691406 27.804688 C 16.351562 27.804688 16.015625 27.804688 15.675781 27.804688 C 15.628906 27.804688 15.578125 27.804688 15.53125 27.804688 C 15.433594 27.804688 15.332031 27.804688 15.234375 27.804688 C 14.316406 27.804688 13.398438 27.804688 12.480469 27.804688 C 11.640625 27.804688 10.800781 27.804688 9.960938 27.808594 C 9.097656 27.808594 8.234375 27.808594 7.371094 27.808594 C 6.886719 27.808594 6.402344 27.808594 5.917969 27.808594 C 5.507812 27.808594 5.09375 27.808594 4.679688 27.808594 C 4.472656 27.808594 4.261719 27.808594 4.050781 27.808594 C 3.820312 27.808594 3.59375 27.808594 3.363281 27.808594 C 3.300781 27.808594 3.234375 27.808594 3.164062 27.808594 C 2.464844 27.804688 1.886719 27.601562 1.367188 27.125 C 0.84375 26.542969 0.65625 25.953125 0.6875 25.179688 C 0.734375 24.5625 1.03125 24.042969 1.484375 23.625 C 2.109375 23.109375 2.761719 23.003906 3.554688 23.078125 C 4.023438 23.152344 4.484375 23.261719 4.945312 23.371094 C 5.125 23.410156 5.300781 23.453125 5.480469 23.492188 C 5.652344 23.53125 5.824219 23.570312 5.996094 23.613281 C 6.0625 23.625 6.125 23.640625 6.191406 23.65625 C 6.746094 23.789062 6.746094 23.789062 6.945312 24.007812 C 6.996094 24.148438 6.996094 24.148438 7.023438 24.316406 C 7.085938 24.628906 7.167969 24.929688 7.269531 25.230469 C 7.28125 25.273438 7.296875 25.3125 7.308594 25.355469 C 7.417969 25.675781 7.527344 25.996094 7.808594 26.195312 C 8.023438 26.261719 8.152344 26.253906 8.367188 26.195312 C 8.492188 26.09375 8.566406 26.011719 8.640625 25.867188 C 8.664062 25.570312 8.609375 25.378906 8.488281 25.109375 C 7.882812 23.699219 8.261719 22.292969 8.582031 20.863281 C 8.609375 20.742188 8.636719 20.621094 8.664062 20.5 C 8.738281 20.167969 8.8125 19.839844 8.886719 19.511719 C 8.960938 19.195312 9.03125 18.878906 9.101562 18.566406 C 9.242188 17.933594 9.386719 17.300781 9.527344 16.667969 C 9.722656 15.804688 9.917969 14.941406 10.109375 14.078125 C 10.175781 13.78125 10.242188 13.484375 10.308594 13.191406 C 10.328125 13.117188 10.34375 13.042969 10.359375 12.96875 C 10.484375 12.414062 10.609375 11.859375 10.734375 11.304688 C 11.199219 9.238281 11.664062 7.171875 12.125 5.105469 C 12.136719 5.046875 12.152344 4.988281 12.164062 4.929688 C 12.191406 4.816406 12.214844 4.703125 12.242188 4.585938 C 12.304688 4.316406 12.363281 4.042969 12.425781 3.769531 C 12.53125 3.300781 12.636719 2.832031 12.738281 2.363281 C 12.78125 2.160156 12.824219 1.957031 12.871094 1.75 C 12.890625 1.65625 12.910156 1.5625 12.933594 1.464844 C 12.960938 1.335938 12.988281 1.203125 13.015625 1.074219 C 13.023438 1.035156 13.03125 1 13.039062 0.960938 C 13.097656 0.710938 13.1875 0.527344 13.34375 0.328125 C 13.628906 0.152344 13.859375 0.125 14.164062 0.273438 Z M 15.039062 7 C 14.890625 7.222656 14.898438 7.398438 14.929688 7.65625 C 15.019531 7.871094 15.101562 7.953125 15.3125 8.039062 C 15.480469 8.066406 15.636719 8.070312 15.804688 8.039062 C 15.957031 7.917969 16.046875 7.828125 16.132812 7.65625 C 16.152344 7.363281 16.15625 7.183594 15.96875 6.945312 C 15.671875 6.75 15.316406 6.773438 15.039062 7 Z M 19.414062 7 C 19.265625 7.222656 19.273438 7.398438 19.304688 7.65625 C 19.394531 7.871094 19.476562 7.953125 19.6875 8.039062 C 19.855469 8.066406 20.011719 8.070312 20.179688 8.039062 C 20.332031 7.917969 20.421875 7.828125 20.507812 7.65625 C 20.527344 7.363281 20.53125 7.183594 20.34375 6.945312 C 20.046875 6.75 19.691406 6.773438 19.414062 7 Z M 15.203125 21.273438 C 15.074219 21.46875 15.078125 21.664062 15.078125 21.890625 C 15.078125 21.933594 15.078125 21.972656 15.078125 22.011719 C 15.078125 22.144531 15.078125 22.277344 15.078125 22.410156 C 15.078125 22.5 15.078125 22.59375 15.078125 22.683594 C 15.078125 22.878906 15.078125 23.070312 15.078125 23.261719 C 15.082031 23.511719 15.078125 23.757812 15.078125 24.003906 C 15.078125 24.191406 15.078125 24.382812 15.078125 24.574219 C 15.078125 24.664062 15.078125 24.753906 15.078125 24.84375 C 15.078125 24.972656 15.078125 25.097656 15.078125 25.226562 C 15.078125 25.265625 15.078125 25.300781 15.078125 25.339844 C 15.082031 25.636719 15.125 25.910156 15.289062 26.160156 C 15.488281 26.292969 15.679688 26.316406 15.914062 26.304688 C 16.121094 26.21875 16.238281 26.113281 16.351562 25.921875 C 16.367188 25.773438 16.375 25.640625 16.371094 25.496094 C 16.375 25.453125 16.375 25.410156 16.375 25.363281 C 16.375 25.222656 16.375 25.082031 16.375 24.941406 C 16.375 24.84375 16.375 24.746094 16.375 24.644531 C 16.375 24.441406 16.375 24.234375 16.371094 24.027344 C 16.371094 23.765625 16.371094 23.5 16.375 23.234375 C 16.375 23.03125 16.375 22.828125 16.375 22.625 C 16.375 22.53125 16.375 22.433594 16.375 22.335938 C 16.375 22.199219 16.375 22.0625 16.371094 21.925781 C 16.375 21.886719 16.375 21.847656 16.375 21.804688 C 16.371094 21.507812 16.292969 21.339844 16.097656 21.121094 C 15.773438 20.957031 15.449219 21.007812 15.203125 21.273438 Z M 15.203125 21.273438 "/>
</g>
</svg>
